<svg id="_ÎÓÈ_1" data-name="—ÎÓÈ_1" xmlns="http://www.w3.org/2000/svg" viewBox="0 0 526.94 428.98"><defs><style>.cls-1{fill:#d8d8d8;}.cls-2{fill:#fff;}.cls-3{fill:#adadad;}.cls-4{fill:#ededed;}.cls-5{fill:#282828;}.cls-6{fill:#343e57;}.cls-7{fill:#f4a086;}.cls-8{fill:#f7b690;}.cls-9{fill:#4eced1;}.cls-10{fill:#34b9c4;}.cls-11{fill:#343535;}.cls-12{fill:#3b4c78;}.cls-13{fill:#abc1f8;}.cls-14{fill:#f0adcb;}</style></defs><title>inspora_hero</title><path class="cls-1" d="M914.24,493.06h52.38a11.29,11.29,0,0,1,11.28,11.28h119.54a10.17,10.17,0,0,1,10.17,10.18h0a10.17,10.17,0,0,1-10.17,10.17h-48.06a9.67,9.67,0,0,0-9.67,9.67h0a9.67,9.67,0,0,0,9.67,9.67h7.95a8.57,8.57,0,0,1,8.57,8.56h0a8.57,8.57,0,0,1-8.57,8.56h-92a8.56,8.56,0,0,1-8.56-8.56h0a8.56,8.56,0,0,1,8.56-8.56h11.58a9.67,9.67,0,0,0,9.67-9.67h0a9.67,9.67,0,0,0-9.67-9.67H919a5.54,5.54,0,0,0-5.54,5.54h0a5.54,5.54,0,0,0,5.54,5.54h2.31a7,7,0,0,1,7.05,7.05h0a7,7,0,0,1-7.05,7H885.63a8,8,0,0,0-8,8h0a8,8,0,0,0,8,8h24.79a10.35,10.35,0,0,1,10.35,10.35h0a10.35,10.35,0,0,1-10.38,10.36c-20.22-.07-64.43,0-82.06,0a7.47,7.47,0,0,0-7.46,7.48h0a7.47,7.47,0,0,0,7.47,7.47h45.1a8.66,8.66,0,0,1,8.66,8.66h0a8.67,8.67,0,0,1-8.66,8.67H811.1a26.49,26.49,0,0,1-26.49-26.49h0a26.49,26.49,0,0,1,26.49-26.49h14.5a8.16,8.16,0,0,0,8.16-8.16h0a8.16,8.16,0,0,0-8.16-8.16H764.68a12.38,12.38,0,0,1-12.38-12.38h0a12.38,12.38,0,0,1,12.38-12.39h8.46a6.55,6.55,0,0,0,6.55-6.55h0a6.54,6.54,0,0,0-6.55-6.54H718a6.54,6.54,0,0,0-6.54,6.54h0a6.54,6.54,0,0,0,6.54,6.55h7.86a7.15,7.15,0,0,1,7.15,7.15h0a7.15,7.15,0,0,1-7.15,7.15H644.73a27,27,0,0,1-27-27H590.15a9.47,9.47,0,0,1-9.47-9.47h0a9.47,9.47,0,0,1,9.47-9.47Z" transform="translate(-580.68 -189.77)"/><rect class="cls-1" x="764.99" y="189.77" width="158.31" height="303.42" rx="12.81" transform="translate(1107.61 493.2) rotate(-180)"/><rect class="cls-2" x="769.78" y="212.47" width="148.73" height="271.55" rx="12.04" transform="translate(1107.61 506.72) rotate(-180)"/><path class="cls-3" d="M824.36,208.81a1.59,1.59,0,0,1-1.14-2.71,29.53,29.53,0,0,1,41.86,0,1.59,1.59,0,0,1-1.15,2.71Z" transform="translate(-580.68 -189.77)"/><circle class="cls-3" cx="196.61" cy="12.3" r="5.9"/><path class="cls-4" d="M868.51,227.88h3.72a.7.7,0,0,1,.68.54,7.23,7.23,0,0,0,14.13,0,.7.7,0,0,1,.69-.54h3.71a3.53,3.53,0,0,1,2.49,1l11.41,11.41a.9.9,0,0,1,0,1.27L897,249.9a.9.9,0,0,1-1.27,0L892.9,247v23.61a1.79,1.79,0,0,1-1.79,1.78H868.84a1.78,1.78,0,0,1-1.78-1.78V247l-2.87,2.86a.89.89,0,0,1-1.26,0l-8.32-8.31a.9.9,0,0,1,0-1.27L866,228.91A3.49,3.49,0,0,1,868.51,227.88Z" transform="translate(-580.68 -189.77)"/><rect class="cls-4" x="782.69" y="230.33" width="58.86" height="14.94" rx="7.47" transform="translate(1043.57 285.83) rotate(-180)"/><path class="cls-4" d="M819.78,287.34h-3.71a.71.71,0,0,0-.69.55,7.23,7.23,0,0,1-14.13,0,.7.7,0,0,0-.68-.55h-3.72a3.5,3.5,0,0,0-2.48,1L783,299.78a.9.9,0,0,0,0,1.27l8.31,8.31a.9.9,0,0,0,1.27,0l2.86-2.86v23.62a1.78,1.78,0,0,0,1.78,1.78h22.28a1.78,1.78,0,0,0,1.78-1.78V306.5l2.86,2.86a.9.9,0,0,0,1.27,0l8.31-8.31a.9.9,0,0,0,0-1.27l-11.41-11.41A3.53,3.53,0,0,0,819.78,287.34Z" transform="translate(-580.68 -189.77)"/><path class="cls-4" d="M898.13,304.74H854.21a7.47,7.47,0,0,1-7.47-7.47h0a7.47,7.47,0,0,1,7.47-7.47h43.92a7.47,7.47,0,0,1,7.47,7.47h0A7.47,7.47,0,0,1,898.13,304.74Z" transform="translate(-580.68 -189.77)"/><polygon class="cls-5" points="227.09 146.83 236.22 140.28 248.59 141.29 256.75 147.28 258.38 177.1 251.71 180.47 238.5 163.11 227.09 146.83"/><circle class="cls-6" cx="850.65" cy="418.69" r="28.12" transform="translate(-526.91 742.62) rotate(-59.01)"/><path class="cls-5" d="M834.07,365.51c1.61,6.45-1.79,13.58,1.16,25.4s22.2,24.71,23.21,31.4l.54,23.34c.5,0,19-33.77,19-33.77-4.28-17.11-22.67-24.59-26.67-40.62s-.58-18.42-3.38-29.63c-3.14-12.6-27.41-27.76-45.73-6.38.29,3.84,2.71,2.9,2.71,2.9L819,331.66s13.92,4.13,14.39,4.68.58,4.31.54,4.82S835,351.47,835,351.47l.3,5.87Z" transform="translate(-580.68 -189.77)"/><polygon class="cls-7" points="239.37 180.68 229.13 178.71 234.11 177.47 232.5 170.03 251.16 166.79 252.67 172.84 253.39 175.74 256.28 186.46 244.63 204.1 241.3 190.81 239.37 180.68"/><path class="cls-8" d="M825.89,348.19,824,340.65a4.16,4.16,0,0,0-5-3l-13,3.24a4.16,4.16,0,0,0-3,5l5.8,23.22a8.78,8.78,0,0,0,10.65,6.4h0c6.76-1.68,14-7.84,12.17-14.95,1.9-.48,1.37-1.87,2-3.28.85-1.81.85-3,.22-5.51a4.22,4.22,0,0,0-6-2.69A1.39,1.39,0,0,1,825.89,348.19Z" transform="translate(-580.68 -189.77)"/><path class="cls-2" d="M820.46,364.78,811.53,367l.66,2.63a2,2,0,0,0,2.66,1.41,9.27,9.27,0,0,0,6-5.81A.35.35,0,0,0,820.46,364.78Z" transform="translate(-580.68 -189.77)"/><path class="cls-5" d="M819,337.63c-2.6,6-18.58,17-18.58,17L794.64,344a50.34,50.34,0,0,1,3.58-4.2c.57-.36,9-2.9,9-2.9l8.5-2.12Z" transform="translate(-580.68 -189.77)"/><path class="cls-5" d="M803,345.91a4.16,4.16,0,0,1,3-5l9-2.26a13,13,0,1,0-8.88,20Z" transform="translate(-580.68 -189.77)"/><path class="cls-9" d="M874.31,374.62c14.5,0,34,12.09,47.33,7.46s19.49-18.22,21.35-26.59c.81-3.63,15.78.74,14.17,5.57-3,9.06-14.77,56.13-73.79,48.41C879.54,400.41,874.31,374.62,874.31,374.62Z" transform="translate(-580.68 -189.77)"/><path class="cls-5" d="M696,501.12a95.72,95.72,0,0,0-16.22,6.76.71.71,0,0,0,.35,1.33H701.6a1.3,1.3,0,0,0,1.24-1.69l-2.52-7.93Z" transform="translate(-580.68 -189.77)"/><path class="cls-5" d="M673.37,493.41a95.72,95.72,0,0,0-16.22,6.76.71.71,0,0,0,.36,1.33h21.42a1.3,1.3,0,0,0,1.24-1.69l-2.52-7.93Z" transform="translate(-580.68 -189.77)"/><path class="cls-10" d="M911,396.92c6.44,2.41,9.53-1.08,12.35-5.51,2.64-4.14,13.14-5.82,17.46.68-9.59,10.44-24.66,19.12-48.48,18.15L891,386C898.61,384.56,904.52,394.5,911,396.92Z" transform="translate(-580.68 -189.77)"/><path class="cls-8" d="M913.72,428l10.1-1.38a6.75,6.75,0,0,1,4,.68l10.4,5.32L933.85,439H912.61Z" transform="translate(-580.68 -189.77)"/><path class="cls-10" d="M853.49,398.8c0-17.13,10.88-24.18,20.82-24.18,15.51,0,31,17.8,31,95.68-7.52,9.4-37.27,29.61-45.66,29.61-3.89,0-6.18-6.44-6.18-14.23Z" transform="translate(-580.68 -189.77)"/><path class="cls-10" d="M748.36,445.65l-2,23c-5.94,12.22-33.87,26.86-73,24.8C697.69,481.61,737.47,447.71,748.36,445.65Z" transform="translate(-580.68 -189.77)"/><path class="cls-11" d="M899.89,439h86.48a0,0,0,0,1,0,0v6.71a0,0,0,0,1,0,0H899.08a0,0,0,0,1,0,0v-5.91A.81.81,0,0,1,899.89,439Z" transform="translate(1304.77 694.86) rotate(-180)"/><rect class="cls-6" x="902.64" y="439.43" width="30.55" height="5.76" rx="1.1" transform="translate(1255.15 694.86) rotate(-180)"/><path class="cls-6" d="M954.5,398.54h51.36a.81.81,0,0,1,.72,1.17L986.37,439H933.19l20.59-40A.8.8,0,0,1,954.5,398.54Z" transform="translate(-580.68 -189.77)"/><path class="cls-6" d="M955.13,399.34h50.34a.79.79,0,0,1,.7,1.16L986.37,439H934.25l20.18-39.19A.81.81,0,0,1,955.13,399.34Z" transform="translate(-580.68 -189.77)"/><path class="cls-11" d="M974.82,422.78c7.86,4.63,16.11-2.42,13.7-10.88-1.85-6.46,1.47-10.84,4.58-12.56h12.37a.79.79,0,0,1,.7,1.16L986.37,439H934.25C950.08,414.05,967,418.14,974.82,422.78Z" transform="translate(-580.68 -189.77)"/><path class="cls-5" d="M1009.43,515a139,139,0,0,0,20.33,1.25.67.67,0,0,0,.34-1.23c-8.24-5.2-23.5-7.46-29.13-7.27C1002.58,510,1009.43,515,1009.43,515Z" transform="translate(-580.68 -189.77)"/><path class="cls-6" d="M944,449.15c14-6.17,35.25-11.28,39.88-6.85s23.17,73.93,23.17,73.93-38.27-26.12-41.29-52.31c-3.83.21-11.08.74-11.08.74Z" transform="translate(-580.68 -189.77)"/><path class="cls-8" d="M800.91,399.52l-5.53-12.84a3.11,3.11,0,0,0-1.18-1.38l-7.72-5-4.24-3.89a.58.58,0,0,0-1,.45h0a4.69,4.69,0,0,0,1.18,2.89l6.67,7.5-4,2a1.34,1.34,0,0,0-.74,1.34l.46,5a2.12,2.12,0,0,0,.94,1.56L790,400a1.63,1.63,0,0,0,1.39.19l2.22-.7,2.85,4.63Z" transform="translate(-580.68 -189.77)"/><path class="cls-9" d="M850.74,492.46c-4.43,10.47-13.5,21.35-28.4,21.35-23.37,0-52.78-48.54-61.44-54.38-2.82,13.29-26.38,34.24-64.86,41.69,20.75-17.32,51.17-59.82,61.24-64.46s24.91,6.65,53.51,24.58S850.74,492.46,850.74,492.46Z" transform="translate(-580.68 -189.77)"/><path class="cls-11" d="M1007.05,516.23a139,139,0,0,0,20.32,1.25.67.67,0,0,0,.35-1.23c-8.25-5.2-23.5-7.46-29.13-7.27C1000.2,511.19,1007.05,516.23,1007.05,516.23Z" transform="translate(-580.68 -189.77)"/><path class="cls-4" d="M813.21,414.64c-6.05-8.06-10.48-14.77-11.42-17.46-2.68,1.88-9.93,6.45-9.93,6.45,4.56,15,13.29,34.51,23.09,34.51s10.61-18.8,10.61-18.8Z" transform="translate(-580.68 -189.77)"/><path class="cls-12" d="M859.67,499.91c6.58,0,7-13.49,20.88-22.76s54.19-36,65.26-36c12.29,0,61.24,75.13,61.24,75.13-17.93-2.42-55.8-26.19-61.44-46.33-8.86,5.64-34.91,43.91-58.21,43.91S859.67,499.91,859.67,499.91Z" transform="translate(-580.68 -189.77)"/><path class="cls-10" d="M772.59,461.44c1.82,9.6,12.79,17.73,23.36,16.11,7.61-1.16,12.28.46,13.19,6.95s7,14.91,15,14.91,14.3-3.53,14.91-14l4.58.07a85.88,85.88,0,0,1,7.1,7c-4.43,10.47-13.5,21.35-28.4,21.35-23.37,0-52.78-48.54-61.44-54.38C762.11,451,771,453,772.59,461.44Z" transform="translate(-580.68 -189.77)"/><path class="cls-4" d="M853.49,397.18c0-7.25-7.11-19.06-16.51-19.06-18.2,0-16.61,19.91-24.57,31A15.67,15.67,0,0,0,817,431.65a20.65,20.65,0,0,0,5.15,2.19,46.63,46.63,0,0,0,1,9.67c-5,4.64-16.34,13.47-13.16,16.65,12.32,12.32,16.12,34.31,41.36,34.31,2.27,0,2.15-4.49,2.15-8.79Z" transform="translate(-580.68 -189.77)"/><path class="cls-9" d="M866,376.77c6.85,0,16.3,5.66,12.49,22.29-4.7,20.55-4.43,30.62-4.43,30.62,10.34-1.34,33.47-4,36-4.39,5.37-.81,9.57,12.32,5.94,14.2-5.15,2.67-40.35,17.77-50.42,13.42-14.64-6.31-19.07-38-15.44-56.93S862.62,376.77,866,376.77Z" transform="translate(-580.68 -189.77)"/><path class="cls-8" d="M944.61,355.15c-.08-.18-.33-2.55-.54-3.85a3.52,3.52,0,0,0-.64-1.53l-3-4.08a4.29,4.29,0,0,1-.83-2.51,12.34,12.34,0,0,0-1.22-5.25,1.51,1.51,0,0,1,1.44-2.16H940a3.81,3.81,0,0,1,2.9,1.62l3.31,4.73,1.88-8.26-.66-8.79a1.51,1.51,0,0,1,1.78-1.6h0a4.9,4.9,0,0,1,3.52,2.68l3.69,7.6a9.12,9.12,0,0,1,.87,3.2l.79,9.43a8.89,8.89,0,0,1-.35,3.36s-1.65,6.34-2.59,9S945.71,357.77,944.61,355.15Z" transform="translate(-580.68 -189.77)"/><path class="cls-6" d="M888.69,499.49c12.29,0,14.29-7.51,16.23-13.14,2.09-6,9.15-9,15.72-8.12,8.39,1.14,15.17-3.7,16.21-9.54.84-4.72,7-6.14,8.76,1.21-8.86,5.64-35.72,43.91-59,43.91s-26.92-13.9-26.92-13.9c5.4,0,6.65-9.09,14.61-17.48C872.87,491.15,878.48,499.49,888.69,499.49Z" transform="translate(-580.68 -189.77)"/><circle class="cls-10" cx="1006.61" cy="404.01" r="29.74" transform="translate(-332.54 989.61) rotate(-67.5)"/><path class="cls-2" d="M1015.58,386.07h-4.49a4.49,4.49,0,1,1-9,0h-4.48l-12.56,7.18,3.59,9.86,5.38-1.79V422h25.11V401.32l5.38,1.79,3.59-9.86Z" transform="translate(-580.68 -189.77)"/><circle class="cls-10" cx="1011.92" cy="335.74" r="19.51" transform="translate(-621.39 -23.35) rotate(-9.22)"/><path class="cls-2" d="M1024.27,336.27l-.42-1v0a1.64,1.64,0,0,0-.35-.52c-.69-.69-2.16-1.08-4.62-1.07h-.69l-1.95-.92,0,0a.42.42,0,0,0-.15-.58.43.43,0,0,0-.59.15l0,.09-1-.45,0-.06a.42.42,0,0,0-.15-.58.43.43,0,0,0-.59.15l-.07.13-1-.45.06-.1a.42.42,0,0,0-.15-.58.43.43,0,0,0-.59.15l-.1.17-1-.45.09-.14a.43.43,0,0,0-.16-.58.42.42,0,0,0-.58.15l-.12.21-1.14-.54a.43.43,0,0,0-.54.16,4.6,4.6,0,0,1-.28.38,6.65,6.65,0,0,1-.88.88,5.62,5.62,0,0,1-2,1.05h0a.61.61,0,0,0-.13,0h0l.14,0c-.83,0-1.75.05-2.56.08h0a8.16,8.16,0,0,1-2.32-.92.39.39,0,0,0-.18-.06,1.12,1.12,0,0,1-.68-1,.43.43,0,0,0-.85,0,2,2,0,0,0,1,1.74q0,.23-.09.48l-.35,1.85,0,.17c-.27,1.35-.46,2.27-.51,2.44l0,.1v2.58a.42.42,0,0,0,.42.42h1l2.54.06,7.71.19,3.62.1,2.06.06c3.51.1,5.92-.54,7.43-1.63A1.94,1.94,0,0,0,1024.27,336.27Z" transform="translate(-580.68 -189.77)"/><circle class="cls-10" cx="1052.66" cy="373.44" r="15.3" transform="translate(-626.9 -16.34) rotate(-9.22)"/><path class="cls-2" d="M1045.61,367.44h13.17l.57-1.92a.86.86,0,0,1,.83-.65h.86a.86.86,0,1,1,0,1.71h-.22l-2.37,7.91a.86.86,0,0,1-.84.66h-10.28a.86.86,0,0,1-.84-.66l-1.69-5.92a.84.84,0,0,1,0-.27A.85.85,0,0,1,1045.61,367.44Z" transform="translate(-580.68 -189.77)"/><path class="cls-2" d="M1056.76,378.58a1.72,1.72,0,1,1-1.72,1.71A1.72,1.72,0,0,1,1056.76,378.58Z" transform="translate(-580.68 -189.77)"/><path class="cls-2" d="M1047.33,377.72a.86.86,0,1,1,0-1.71h10.28a.86.86,0,1,1,0,1.71Z" transform="translate(-580.68 -189.77)"/><path class="cls-2" d="M1048.15,378.58a1.72,1.72,0,1,1-1.72,1.71A1.71,1.71,0,0,1,1048.15,378.58Z" transform="translate(-580.68 -189.77)"/><path class="cls-1" d="M846,382.68c-1.41-4.35-3.29-9.07-4.12-11.15a1.55,1.55,0,0,0-1.63-.95c-7.7.94-21.35,6.13-21,22.58C825.7,386.71,846,382.68,846,382.68Z" transform="translate(-580.68 -189.77)"/><path class="cls-4" d="M800.25,415.58a5.84,5.84,0,0,0,5.71,6.18,10.76,10.76,0,0,1,8.79,4l6.78,7.18-4.19,4.76a7,7,0,0,1-2.39.41c-8.07,0-15.42-13.21-20.31-26.27C797.6,411.32,800.3,412.89,800.25,415.58Z" transform="translate(-580.68 -189.77)"/><path class="cls-6" d="M751.35,413.29l-31.19-31.2a.64.64,0,0,1,.46-1.1h25.52a1.22,1.22,0,0,1,.85.34l31.19,31.2a.64.64,0,0,1-.46,1.1H752.2A1.22,1.22,0,0,1,751.35,413.29Z" transform="translate(-580.68 -189.77)"/><path class="cls-6" d="M776.57,412.53a.64.64,0,0,1-.46,1.1H752.2a1.22,1.22,0,0,1-.85-.34l-31.19-31.2h25.36a1.48,1.48,0,0,1,1.05.44Z" transform="translate(-580.68 -189.77)"/><path class="cls-7" d="M779.37,420.08l0,0c-1.23-1.14-4.83-2.69-5-4.36l0-2.05H769l-13.09-13.09a.83.83,0,0,0-1.41.59v1a2.62,2.62,0,0,0,.35,1.31l7.7,13a6.65,6.65,0,0,0,1.53,1.77l10,8.11Z" transform="translate(-580.68 -189.77)"/><path class="cls-1" d="M841.27,415.51c-3,4-.6,9.27,2,14.31s1,9.46-3.63,11.07c-2.73.95-5,5.64-2.21,10.68,2.06,3.68,2,13.07-2.82,16.32s-13.5,4-20-7.46C806.51,445.88,841.27,415.51,841.27,415.51Z" transform="translate(-580.68 -189.77)"/><path class="cls-1" d="M815,419.29c2.08-2.08,4.73-2.92,6.64.45l-2.61,13a22.65,22.65,0,0,1-2.08-1.08,15.54,15.54,0,0,1-7.48-14.52c1.19,0,2,1.29,2.91,2.06A1.84,1.84,0,0,0,815,419.29Z" transform="translate(-580.68 -189.77)"/><path class="cls-4" d="M831.2,380.53c-7.38,0-13.83,6.05-12.35,19.21s.67,31.69-8.46,41.76c-6.72-2.69-23.66-15.64-28.74-21.89-1.75-2.15-11.55,3.63-8.86,8.06s27.53,35.45,39.48,35.45S844,429.28,844,402.69C844,388.86,838.86,380.53,831.2,380.53Z" transform="translate(-580.68 -189.77)"/><path class="cls-12" d="M746.57,382.53l12.31,12.3c-3.56-1.09-7.31-1.35-9.81.94-5.44,5-12.49.05-11.84-6.24.33-3.17-3.21-5.71-6.54-5-4.18.91-6.78-.62-10.53-2.45h25.36A1.48,1.48,0,0,1,746.57,382.53Z" transform="translate(-580.68 -189.77)"/><circle class="cls-10" cx="732.96" cy="415.56" r="19.28" transform="translate(-656.55 -10.26) rotate(-13.28)"/><circle class="cls-10" cx="87.89" cy="237.64" r="26.96"/><path class="cls-2" d="M660.89,419.26V408.52a1.19,1.19,0,1,1,2.38,0v1.84a5.38,5.38,0,0,0,5,5.43,5.3,5.3,0,0,0,5.55-5.29v-2a1.19,1.19,0,0,1,2.38,0v10.74Z" transform="translate(-580.68 -189.77)"/><path class="cls-2" d="M653.82,443l7.07-20.73h15.35L683.31,443a.89.89,0,0,1-.85,1.14H654.67A.89.89,0,0,1,653.82,443Z" transform="translate(-580.68 -189.77)"/><circle class="cls-10" cx="106.59" cy="180.56" r="13.87"/><path class="cls-2" d="M696.07,375a4.18,4.18,0,0,1-4,2.82H690c-3.4,0-5.31-7.53-7.52-7.53v7.53h-.57a.7.7,0,0,1-.7-.62l-.88-7.38c-1.72,0-2.18-2.92-2.26-5.42a.71.71,0,0,1,.83-.71c4.73.91,8.44,9.09,11.94,8.63h4.46a1.24,1.24,0,0,1,1.17,1.65Z" transform="translate(-580.68 -189.77)"/><path class="cls-2" d="M724.23,406.82a3.27,3.27,0,0,0-1,2.32v6.55a1.09,1.09,0,0,0,.32.78l10.91,10.91a1.1,1.1,0,0,0,.78.33,1.11,1.11,0,0,0,.82-.37l4.37-4.28,4.27-4.36a1.13,1.13,0,0,0,.37-.82,1.1,1.1,0,0,0-.33-.78l-10.9-10.91a1.12,1.12,0,0,0-.79-.33h-6.55A3.27,3.27,0,0,0,724.23,406.82Zm1.22,2.32a1.09,1.09,0,0,1,1.09-1.09,1.08,1.08,0,0,1,.77,1.86,1.06,1.06,0,0,1-.77.32A1.09,1.09,0,0,1,725.45,409.14Z" transform="translate(-580.68 -189.77)"/><path class="cls-13" d="M887.5,385c-4.73-5.44-11.78-16.92-21-10.48.2-6.34,2.72-9,2.72-9C875.11,364.75,887.2,371,887.5,385Z" transform="translate(-580.68 -189.77)"/><path class="cls-5" d="M866.36,362.31c-2.8,0-6.05-2.31-6.05-8.12,0-7.64-4-9.62-4-15.37,0-5.37,2.72-8.09,5-8.73a11.2,11.2,0,0,1,11.1-10.73c7.48,0,10.24,3.69,14.73,3.69,2.82,0,4.18-1,7.2-1a9.21,9.21,0,0,1,9.33,9.64c0,6.88-3.23,12-9.2,12s-20.89,11-20.89,11L870,361.81Z" transform="translate(-580.68 -189.77)"/><polygon class="cls-7" points="305.66 172.75 309.41 169.73 304.21 169.73 303.97 162.03 284.86 163.43 284.86 169.73 284.86 172.75 284.05 182.41 302.49 189.08 305.61 192.6 305.66 172.75"/><path class="cls-8" d="M869.33,343.51v-7.86a4.2,4.2,0,0,1,4.2-4.2h18.12a4.2,4.2,0,0,1,4.21,4.2v28.22a4.9,4.9,0,0,1-4.91,4.9h-8.56c-7,0-15.62-4.28-15.62-11.7-2,0-1.8-1.49-2.8-2.71-1.27-1.57-1.56-2.72-1.56-5.36a4.27,4.27,0,0,1,5.28-4.11A1.4,1.4,0,0,0,869.33,343.51Z" transform="translate(-580.68 -189.77)"/><path class="cls-2" d="M880.18,358.47h13.51c0,2,0,4.89-4.2,4.89-4,0-7.07-.73-9.59-4.33A.35.35,0,0,1,880.18,358.47Z" transform="translate(-580.68 -189.77)"/><path class="cls-9" d="M887.5,385c-4.48-6.35-15.83-13-25.09-6.6a50.91,50.91,0,0,1,1.28-10.08.79.79,0,0,1,.73-.6C870.71,367.43,885,374.66,887.5,385Z" transform="translate(-580.68 -189.77)"/><path class="cls-14" d="M965.3,273.48A31,31,0,1,0,919,310.78l-6.09,14.73a1.71,1.71,0,0,0,2.23,2.27L948.54,314A31,31,0,0,0,965.3,273.48Z" transform="translate(-580.68 -189.77)"/><path class="cls-14" d="M715.09,295a36.28,36.28,0,1,1,54.21,43.68L776.44,356a2,2,0,0,1,0,1.57,2,2,0,0,1-2.64,1.08l-39.1-16.19A36.27,36.27,0,0,1,715.09,295Z" transform="translate(-580.68 -189.77)"/><rect class="cls-2" x="341.4" y="90.2" width="4.61" height="16.76" rx="0.77"/><path class="cls-2" d="M951.29,280.74a2.51,2.51,0,0,0-.86-2,1.48,1.48,0,0,0-1-.35h-9.91a.77.77,0,0,1-.67-1.15l2.42-4.23a4,4,0,0,0-.87-4.85.72.72,0,0,0-.59-.21.76.76,0,0,0-.55.31l-9.17,12a2.76,2.76,0,0,1-.86.77l-1,.62v13.68h.9a1.54,1.54,0,0,1,1.09.45l.64.64a1.46,1.46,0,0,0,1.08.45h17.52a1.47,1.47,0,0,0,1-.34,2.53,2.53,0,0,0,.86-2,2.63,2.63,0,0,0-.66-1.78.77.77,0,0,1,0-1.06,2.73,2.73,0,0,0,0-3.56.76.76,0,0,1,0-1.05,2.73,2.73,0,0,0,0-3.56.76.76,0,0,1,0-1.05A2.63,2.63,0,0,0,951.29,280.74Z" transform="translate(-580.68 -189.77)"/><path class="cls-2" d="M764.82,312.28,750,326.39a2,2,0,0,1-2.8,0l-14.81-14.11-.39-.37a10.88,10.88,0,1,1,16.6-14,10.88,10.88,0,1,1,16.6,14C765.08,312,765,312.16,764.82,312.28Z" transform="translate(-580.68 -189.77)"/><path class="cls-4" d="M707.35,353.7c3.21,0,3.22-5,0-5s-3.23,5,0,5Z" transform="translate(-580.68 -189.77)"/></svg>